<?xml version="1.0" standalone="no"?>
<!DOCTYPE svg PUBLIC "-//W3C//DTD SVG 20010904//EN"
 "http://www.w3.org/TR/2001/REC-SVG-20010904/DTD/svg10.dtd">
<svg version="1.0" xmlns="http://www.w3.org/2000/svg"
 width="300.000000pt" height="240.000000pt" viewBox="0 0 300.000000 240.000000"
 preserveAspectRatio="xMidYMid meet">
<metadata>
Created by potrace 1.10, written by Peter Selinger 2001-2011
</metadata>
<g transform="translate(0.000000,240.000000) scale(0.100000,-0.100000)"
fill="#000000" stroke="none">
<path d="M1270 1809 c-65 -36 -96 -63 -118 -105 -10 -18 -46 -52 -82 -76 l-65
-44 -25 -116 c-23 -106 -29 -121 -72 -175 -52 -66 -118 -181 -118 -206 0 -8
10 -24 23 -34 12 -10 29 -38 36 -63 8 -27 30 -61 57 -89 24 -24 44 -52 44 -62
0 -31 58 -88 102 -99 49 -14 81 -7 181 37 96 42 170 52 214 29 50 -25 101 -94
134 -180 17 -45 32 -82 34 -84 7 -8 182 60 230 89 70 42 148 118 191 186 48
74 86 194 90 283 4 76 -5 66 -20 -22 -7 -40 -26 -53 -26 -18 0 11 -7 23 -15
27 -35 13 -84 -72 -71 -124 6 -21 11 -24 31 -19 31 8 31 5 3 -39 -26 -40 -34
-43 -43 -15 -9 27 -53 60 -82 60 -13 0 -35 -11 -49 -25 l-25 -25 26 -31 c14
-17 32 -44 40 -60 15 -28 14 -29 -22 -54 l-38 -25 -29 57 c-82 163 -213 271
-373 309 -88 21 -244 14 -328 -13 l-60 -20 125 5 c150 5 239 -11 348 -63 115
-54 221 -178 247 -286 6 -23 2 -27 -33 -37 -50 -15 -52 -15 -52 4 0 32 -66
140 -118 191 -60 61 -145 107 -234 128 -71 17 -244 20 -253 5 -3 -6 4 -10 16
-10 35 0 149 -23 149 -30 0 -10 -64 -38 -102 -45 -48 -9 -113 11 -137 42 -27
33 -26 52 2 93 47 71 140 101 307 101 129 0 205 -16 287 -60 29 -16 53 -26 53
-21 0 14 -69 98 -101 123 -32 25 -32 25 -33 123 -1 88 -4 104 -28 144 -14 25
-39 53 -55 62 l-30 17 18 -52 c53 -153 -13 -292 -139 -292 -36 0 -48 5 -68 28
-37 43 -32 56 15 44 73 -20 144 40 162 136 4 23 5 45 3 49 -6 9 -80 -28 -144
-71 -25 -17 -48 -31 -53 -31 -9 0 27 72 56 114 20 28 20 28 0 18 -41 -22 -164
-165 -209 -242 l-47 -80 -44 0 -45 0 23 38 c35 56 131 181 189 245 29 31 49
57 45 57 -3 0 -26 -14 -51 -30 -48 -34 -49 -33 -34 22 10 34 19 41 113 88 73
36 131 57 197 70 52 11 96 18 98 16 2 -2 -4 -20 -12 -40 -8 -20 -13 -36 -10
-36 3 0 23 15 45 33 41 35 158 97 183 97 24 0 39 -76 33 -165 -3 -44 -10 -91
-15 -105 -8 -20 -10 -14 -16 40 -8 75 -24 140 -33 140 -4 0 -24 -17 -45 -37
-34 -33 -43 -37 -85 -34 l-46 3 61 -67 c76 -83 137 -203 167 -330 8 -29 8 -29
21 20 8 28 14 67 14 87 0 20 4 40 10 43 16 10 60 163 66 235 4 39 8 70 8 70 1
0 35 -11 76 -24 l75 -24 -35 29 c-19 17 -56 44 -82 61 -38 25 -51 41 -63 78
-22 67 -43 84 -97 75 -24 -4 -68 -17 -98 -30 -30 -13 -85 -26 -121 -29 -61 -6
-67 -5 -90 20 -13 14 -36 32 -50 39 -23 12 -31 11 -79 -16z m101 -50 c22 -17
46 -32 54 -33 35 -5 21 -14 -47 -31 -40 -9 -103 -30 -141 -46 -37 -15 -75 -29
-84 -31 -22 -4 -103 -78 -103 -94 0 -7 -4 -15 -9 -18 -5 -4 -8 2 -6 11 2 10 4
23 4 29 1 6 28 30 60 53 33 24 76 67 96 96 24 35 51 61 78 74 54 26 53 26 98
-10z m395 -7 c7 -21 20 -49 39 -81 11 -20 11 -26 1 -37 -8 -7 -16 -41 -20 -76
-11 -100 -50 -228 -69 -228 -4 0 -16 14 -25 31 -9 17 -37 62 -60 100 l-44 69
24 20 c21 17 24 18 36 3 6 -9 12 -27 12 -40 0 -32 27 -83 44 -83 36 0 66 78
66 170 0 79 -16 126 -51 152 -26 20 -28 23 -12 29 22 8 52 -7 59 -29z m-200
-31 c-3 -4 -20 -14 -38 -22 -24 -10 -33 -10 -36 -1 -2 7 -10 12 -18 12 -9 0
-12 5 -9 10 3 6 29 10 56 10 28 0 48 -4 45 -9z m-516 -275 c-1 -16 -29 -50
-36 -43 -3 3 -3 25 1 48 7 40 9 41 21 24 8 -10 14 -24 14 -29z m290 -65 c0 -6
-11 -22 -24 -37 -19 -23 -31 -28 -67 -27 -24 1 -54 -5 -66 -13 -24 -15 -31
-58 -13 -69 6 -3 10 -14 10 -24 0 -13 -15 -22 -57 -34 -76 -21 -116 -48 -148
-96 -65 -98 -1 -191 133 -191 69 0 109 16 140 55 26 33 63 32 149 -2 86 -35
186 -130 228 -216 15 -32 38 -65 51 -74 31 -20 77 -9 106 26 17 20 33 27 61
28 20 1 37 -1 37 -3 0 -10 -93 -64 -143 -83 -84 -31 -103 -28 -117 15 -7 20
-22 52 -34 73 -88 154 -192 182 -372 101 -128 -58 -189 -47 -227 41 -9 19 -29
49 -47 67 -17 18 -41 54 -52 80 -11 26 -29 58 -39 70 -17 22 -17 27 -3 60 8
20 17 38 19 40 2 2 24 -5 48 -17 24 -11 49 -21 56 -21 28 0 69 31 85 64 9 19
32 56 51 81 19 25 35 49 35 54 0 16 38 23 57 10 16 -9 28 -6 69 20 50 31 74
38 74 22z m153 -188 c4 -6 -7 -9 -30 -6 -63 7 -66 14 -28 62 19 24 36 49 36
55 1 6 5 -14 9 -45 4 -31 10 -61 13 -66z m580 -199 c-3 -8 -9 -14 -13 -14 -14
0 -22 20 -16 37 5 12 9 13 21 3 7 -6 11 -18 8 -26z m-112 -127 c35 -35 34 -65
-5 -90 -23 -15 -24 -15 -19 3 3 11 -7 40 -21 65 -42 70 -16 83 45 22z"/>
<path d="M1253 1590 c-47 -21 -56 -46 -19 -56 50 -12 159 37 142 64 -11 18
-76 14 -123 -8z"/>
<path d="M1937 1522 c-26 -28 -31 -75 -13 -110 29 -56 88 -54 112 5 34 79 -46
164 -99 105z m58 -67 c0 -19 -6 -31 -16 -33 -20 -4 -30 18 -22 48 9 32 38 21
38 -15z"/>
<path d="M2072 1355 c-18 -39 -14 -79 9 -109 39 -49 47 -34 30 54 -8 44 -18
80 -21 80 -4 0 -12 -11 -18 -25z"/>
<path d="M1554 1325 c-13 -33 37 -105 73 -105 20 0 25 37 8 69 -23 46 -70 66
-81 36z"/>
<path d="M1810 1284 c-32 -83 16 -182 61 -128 16 20 17 102 0 132 -16 30 -49
28 -61 -4z"/>
<path d="M1961 1261 c-36 -23 0 -125 42 -119 33 5 37 71 6 104 -25 27 -28 28
-48 15z"/>
<path d="M1702 1078 c-20 -20 -14 -31 44 -88 54 -53 56 -54 70 -35 22 28 11
85 -21 113 -28 24 -74 29 -93 10z"/>
<path d="M1255 731 c-11 -5 -29 -19 -40 -31 -20 -22 -20 -22 0 -37 11 -8 46
-28 78 -44 l57 -29 0 46 c0 37 -5 51 -29 75 -32 31 -35 32 -66 20z"/>
<path d="M1413 668 c5 -37 14 -59 33 -79 25 -26 79 -47 90 -36 11 11 -41 109
-73 137 -48 43 -57 39 -50 -22z"/>
</g>
</svg>
